HIERARCHY
ROOT Hips
{
	OFFSET 0.000000 0.000000 0.000000
	CHANNELS 6 Xposition Yposition Zposition Zrotation Yrotation Xrotation 
	JOINT Spine1
	{
		OFFSET -0.013727 5.003763 -0.053727
		CHANNELS 3 Zrotation Yrotation Xrotation
		JOINT Spine2
		{
			OFFSET -0.000000 7.125302 -0.029825
			CHANNELS 3 Zrotation Yrotation Xrotation
			JOINT Chest
			{
				OFFSET -0.000001 7.550064 -0.815971
				CHANNELS 3 Zrotation Yrotation Xrotation
				JOINT Neck1
				{
					OFFSET -0.181677 26.311296 -0.553348
					CHANNELS 3 Zrotation Yrotation Xrotation
					JOINT Neck2
					{
						OFFSET -0.000002 7.709399 2.302585
						CHANNELS 3 Zrotation Yrotation Xrotation
						JOINT Head
						{
							OFFSET -0.000005 6.128912 1.953709
							CHANNELS 3 Zrotation Yrotation Xrotation
							JOINT HeadEnd
							{
								OFFSET 0.003598 16.065403 -1.835380
								CHANNELS 3 Zrotation Yrotation Xrotation
								End Site
								{
									OFFSET 0.000000 0.000000 0.000000
								}
							}
							JOINT Jaw
							{
								OFFSET 0.002637 0.475592 3.094940
								CHANNELS 3 Zrotation Yrotation Xrotation
								End Site
								{
									OFFSET 0.000000 0.000000 0.000000
								}
							}
							JOINT LeftEye
							{
								OFFSET 3.206381 5.380209 7.586883
								CHANNELS 3 Zrotation Yrotation Xrotation
								End Site
								{
									OFFSET 0.000000 0.000000 0.000000
								}
							}
							JOINT RightEye
							{
								OFFSET -3.222440 5.361867 7.558232
								CHANNELS 3 Zrotation Yrotation Xrotation
								End Site
								{
									OFFSET 0.000000 0.000000 0.000000
								}
							}
						}
					}
				}
				JOINT LeftShoulder
				{
					OFFSET 1.621652 23.237165 5.113413
					CHANNELS 3 Zrotation Yrotation Xrotation
					JOINT LeftArm
					{
						OFFSET 14.919845 -0.000000 -5.502325
						CHANNELS 3 Zrotation Yrotation Xrotation
						JOINT LeftForeArm
						{
							OFFSET 28.739309 0.000003 -0.002587
							CHANNELS 3 Zrotation Yrotation Xrotation
							JOINT LeftHand
							{
								OFFSET 27.093977 -0.000003 0.002610
								CHANNELS 3 Zrotation Yrotation Xrotation
								JOINT LeftHandThumb1
								{
									OFFSET 2.276480 -1.392046 3.191413
									CHANNELS 3 Zrotation Yrotation Xrotation
									JOINT LeftHandThumb2
									{
										OFFSET 4.012840 -1.828126 1.641655
										CHANNELS 3 Zrotation Yrotation Xrotation
										JOINT LeftHandThumb3
										{
											OFFSET 2.798516 0.000001 -0.000003
											CHANNELS 3 Zrotation Yrotation Xrotation
											JOINT LeftHandThumbEnd
											{
												OFFSET 3.180791 -0.000001 0.000003
												CHANNELS 3 Zrotation Yrotation Xrotation
												End Site
												{
													OFFSET 0.000000 0.000000 0.000000
												}
											}
										}
									}
								}
								JOINT LeftHandIndex1
								{
									OFFSET 3.247553 -0.531999 2.296169
									CHANNELS 3 Zrotation Yrotation Xrotation
									JOINT LeftHandIndex2
									{
										OFFSET 6.364579 0.012062 0.178600
										CHANNELS 3 Zrotation Yrotation Xrotation
										JOINT LeftHandIndex3
										{
											OFFSET 3.662366 0.000001 0.000000
											CHANNELS 3 Zrotation Yrotation Xrotation
											JOINT LeftHandIndex4
											{
												OFFSET 2.329243 0.000003 0.000003
												CHANNELS 3 Zrotation Yrotation Xrotation
												JOINT LeftHandIndexEnd
												{
													OFFSET 2.759619 -0.180540 -0.113024
													CHANNELS 3 Zrotation Yrotation Xrotation
													End Site
													{
														OFFSET 0.000000 0.000000 0.000000
													}
												}
											}
										}
									}
								}
								JOINT LeftHandMiddle1
								{
									OFFSET 3.163498 0.240982 1.000332
									CHANNELS 3 Zrotation Yrotation Xrotation
									JOINT LeftHandMiddle2
									{
										OFFSET 6.190778 -0.259276 -1.002549
										CHANNELS 3 Zrotation Yrotation Xrotation
										JOINT LeftHandMiddle3
										{
											OFFSET 4.356522 -0.000006 0.000001
											CHANNELS 3 Zrotation Yrotation Xrotation
											JOINT LeftHandMiddle4
											{
												OFFSET 2.996875 -0.000007 0.000000
												CHANNELS 3 Zrotation Yrotation Xrotation
												JOINT LeftHandMiddleEnd
												{
													OFFSET 2.304294 -0.294571 -0.031740
													CHANNELS 3 Zrotation Yrotation Xrotation
													End Site
													{
														OFFSET 0.000000 0.000000 0.000000
													}
												}
											}
										}
									}
								}
								JOINT LeftHandRing1
								{
									OFFSET 2.882642 -0.053650 -0.322543
									CHANNELS 3 Zrotation Yrotation Xrotation
									JOINT LeftHandRing2
									{
										OFFSET 5.854543 -0.486203 -1.373842
										CHANNELS 3 Zrotation Yrotation Xrotation
										JOINT LeftHandRing3
										{
											OFFSET 4.350580 0.000000 0.000003
											CHANNELS 3 Zrotation Yrotation Xrotation
											JOINT LeftHandRing4
											{
												OFFSET 2.651324 0.000007 0.000003
												CHANNELS 3 Zrotation Yrotation Xrotation
												JOINT LeftHandRingEnd
												{
													OFFSET 1.936111 0.077686 -0.000070
													CHANNELS 3 Zrotation Yrotation Xrotation
													End Site
													{
														OFFSET 0.000000 0.000000 0.000000
													}
												}
											}
										}
									}
								}
								JOINT LeftHandPinky1
								{
									OFFSET 2.865499 -0.310004 -1.600378
									CHANNELS 3 Zrotation Yrotation Xrotation
									JOINT LeftHandPinky2
									{
										OFFSET 5.087853 -1.331141 -1.771231
										CHANNELS 3 Zrotation Yrotation Xrotation
										JOINT LeftHandPinky3
										{
											OFFSET 3.070974 0.000002 0.000000
											CHANNELS 3 Zrotation Yrotation Xrotation
											JOINT LeftHandPinky4
											{
												OFFSET 1.549667 0.000000 0.000001
												CHANNELS 3 Zrotation Yrotation Xrotation
												JOINT LeftHandPinkyEnd
												{
													OFFSET 1.944894 -0.157803 0.057219
													CHANNELS 3 Zrotation Yrotation Xrotation
													End Site
													{
														OFFSET 0.000000 0.000000 0.000000
													}
												}
											}
										}
									}
								}
							}
						}
					}
				}
				JOINT RightShoulder
				{
					OFFSET -1.380118 23.180309 5.214158
					CHANNELS 3 Zrotation Yrotation Xrotation
					JOINT RightArm
					{
						OFFSET -15.037197 0.000011 -5.545603
						CHANNELS 3 Zrotation Yrotation Xrotation
						JOINT RightForeArm
						{
							OFFSET -28.736639 0.000003 -0.002597
							CHANNELS 3 Zrotation Yrotation Xrotation
							JOINT RightHand
							{
								OFFSET -27.133617 -0.000000 0.002613
								CHANNELS 3 Zrotation Yrotation Xrotation
								JOINT RightHandThumb1
								{
									OFFSET -2.274036 -1.383990 3.163127
									CHANNELS 3 Zrotation Yrotation Xrotation
									JOINT RightHandThumb2
									{
										OFFSET -4.011429 -1.827468 1.640914
										CHANNELS 3 Zrotation Yrotation Xrotation
										JOINT RightHandThumb3
										{
											OFFSET -2.794934 -0.000004 -0.000003
											CHANNELS 3 Zrotation Yrotation Xrotation
											JOINT RightHandThumbEnd
											{
												OFFSET -3.183856 0.000003 0.000001
												CHANNELS 3 Zrotation Yrotation Xrotation
												End Site
												{
													OFFSET 0.000000 0.000000 0.000000
												}
											}
										}
									}
								}
								JOINT RightHandIndex1
								{
									OFFSET -3.253270 -0.520059 2.282866
									CHANNELS 3 Zrotation Yrotation Xrotation
									JOINT RightHandIndex2
									{
										OFFSET -6.341918 0.012472 0.178265
										CHANNELS 3 Zrotation Yrotation Xrotation
										JOINT RightHandIndex3
										{
											OFFSET -3.654875 -0.000009 -0.000001
											CHANNELS 3 Zrotation Yrotation Xrotation
											JOINT RightHandIndex4
											{
												OFFSET -2.327586 -0.000000 -0.000001
												CHANNELS 3 Zrotation Yrotation Xrotation
												JOINT RightHandIndexEnd
												{
													OFFSET -2.761788 -0.180657 -0.113079
													CHANNELS 3 Zrotation Yrotation Xrotation
													End Site
													{
														OFFSET 0.000000 0.000000 0.000000
													}
												}
											}
										}
									}
								}
								JOINT RightHandMiddle1
								{
									OFFSET -3.168106 0.246593 1.001030
									CHANNELS 3 Zrotation Yrotation Xrotation
									JOINT RightHandMiddle2
									{
										OFFSET -6.180830 -0.258836 -1.000896
										CHANNELS 3 Zrotation Yrotation Xrotation
										JOINT RightHandMiddle3
										{
											OFFSET -4.348906 -0.000000 -0.000000
											CHANNELS 3 Zrotation Yrotation Xrotation
											JOINT RightHandMiddle4
											{
												OFFSET -3.000243 -0.000004 -0.000002
												CHANNELS 3 Zrotation Yrotation Xrotation
												JOINT RightHandMiddleEnd
												{
													OFFSET -2.302518 -0.294371 -0.031706
													CHANNELS 3 Zrotation Yrotation Xrotation
													End Site
													{
														OFFSET 0.000000 0.000000 0.000000
													}
												}
											}
										}
									}
								}
								JOINT RightHandRing1
								{
									OFFSET -2.885693 -0.067953 -0.308858
									CHANNELS 3 Zrotation Yrotation Xrotation
									JOINT RightHandRing2
									{
										OFFSET -5.854196 -0.486132 -1.373732
										CHANNELS 3 Zrotation Yrotation Xrotation
										JOINT RightHandRing3
										{
											OFFSET -4.338814 -0.000004 -0.000000
											CHANNELS 3 Zrotation Yrotation Xrotation
											JOINT RightHandRing4
											{
												OFFSET -2.654906 -0.000004 0.000004
												CHANNELS 3 Zrotation Yrotation Xrotation
												JOINT RightHandRingEnd
												{
													OFFSET -1.933570 0.077524 -0.000052
													CHANNELS 3 Zrotation Yrotation Xrotation
													End Site
													{
														OFFSET 0.000000 0.000000 0.000000
													}
												}
											}
										}
									}
								}
								JOINT RightHandPinky1
								{
									OFFSET -2.866429 -0.342798 -1.584145
									CHANNELS 3 Zrotation Yrotation Xrotation
									JOINT RightHandPinky2
									{
										OFFSET -5.091370 -1.332054 -1.772384
										CHANNELS 3 Zrotation Yrotation Xrotation
										JOINT RightHandPinky3
										{
											OFFSET -3.062666 -0.000007 0.000000
											CHANNELS 3 Zrotation Yrotation Xrotation
											JOINT RightHandPinky4
											{
												OFFSET -1.546527 0.000005 -0.000003
												CHANNELS 3 Zrotation Yrotation Xrotation
												JOINT RightHandPinkyEnd
												{
													OFFSET -1.945122 -0.157721 0.057212
													CHANNELS 3 Zrotation Yrotation Xrotation
													End Site
													{
														OFFSET 0.000000 0.000000 0.000000
													}
												}
											}
										}
									}
								}
							}
						}
					}
				}
			}
		}
	}
	JOINT LeftLeg
	{
		OFFSET 10.043214 -8.434526 2.595654
		CHANNELS 3 Zrotation Yrotation Xrotation
		JOINT LeftShin
		{
			OFFSET -0.000001 -43.221752 -0.802913
			CHANNELS 3 Zrotation Yrotation Xrotation
			JOINT LeftFoot
			{
				OFFSET 0.000001 -42.155094 -3.481522
				CHANNELS 3 Zrotation Yrotation Xrotation
				JOINT LeftToeBase
				{
					OFFSET -0.000000 -5.059474 13.231529
					CHANNELS 3 Zrotation Yrotation Xrotation
					JOINT LeftToeEnd
					{
						OFFSET -0.009607 -1.647615 6.513017
						CHANNELS 3 Zrotation Yrotation Xrotation
						End Site
						{
							OFFSET 0.000000 0.000000 0.000000
						}
					}
				}
			}
		}
	}
	JOINT RightLeg
	{
		OFFSET -10.047277 -8.295259 2.620317
		CHANNELS 3 Zrotation Yrotation Xrotation
		JOINT RightShin
		{
			OFFSET 0.000001 -43.362213 -0.805557
			CHANNELS 3 Zrotation Yrotation Xrotation
			JOINT RightFoot
			{
				OFFSET 0.000002 -42.117393 -3.478398
				CHANNELS 3 Zrotation Yrotation Xrotation
				JOINT RightToeBase
				{
					OFFSET -0.000001 -5.079609 13.284196
					CHANNELS 3 Zrotation Yrotation Xrotation
					JOINT RightToeEnd
					{
						OFFSET 0.009532 -1.634383 6.460591
						CHANNELS 3 Zrotation Yrotation Xrotation
						End Site
						{
							OFFSET 0.000000 0.000000 0.000000
						}
					}
				}
			}
		}
	}
}
MOTION
Frames: 4
Frame Time: 0.033333
2.660671 93.802513 0.731581 -0.495422 0.536921 -0.172912 -2.390202 -0.782387 0.136012 -0.801788 -3.879446 -4.596721 1.381988 -5.781014 13.398618 15.490305 -4.620210 9.595170 -1.385854 -2.420710 -3.693982 1.781279 -4.296590 -9.984257 0.000077 -0.000022 0.000006 0.005560 -0.108825 0.012641 0.787360 -3.822684 -10.601785 -0.786870 3.620964 -10.586387 6.721668 -21.204891 7.247984 -44.565632 -56.297279 -19.993160 -177.368576 -60.456223 179.009155 9.256215 -0.616278 -5.245211 -5.882101 9.861278 0.702590 -10.936858 -0.360575 7.156196 0.000002 8.774814 -0.000002 -15.935379 18.212545 5.931715 -1.844031 2.498503 -2.507276 -10.163589 4.678940 4.621105 -20.975994 -0.000005 0.000004 -21.226254 2.451692 -3.593993 -0.000000 -0.000005 0.000000 -1.362680 2.240797 -0.746322 -21.334887 0.584908 3.008320 -13.821197 -0.000003 0.000001 -23.887131 -0.249078 -0.839482 -59.191174 2.545133 -1.540457 -0.294025 1.679687 0.833255 -14.218190 0.093213 1.300580 -34.212002 -0.287565 0.967169 -20.033176 0.964535 1.212842 -0.000000 0.000001 0.000000 -3.440384 0.788233 0.501655 -15.928167 -3.167308 2.999703 -6.338815 -0.000001 0.000001 -18.123411 3.648177 -4.905662 -0.000005 -0.000000 -0.000002 -0.926961 14.215439 4.022066 24.281355 36.832848 -38.408745 -179.637497 47.324612 -179.715210 -15.627502 -7.298667 24.566319 2.243540 -5.255032 -3.180155 14.282875 -0.826596 6.952495 -0.000002 -12.690591 0.000002 15.657852 -17.387098 2.615237 1.665664 -1.955921 -2.878296 4.727795 -4.170584 4.993917 11.020511 0.000003 -0.000001 12.109034 -3.735712 -2.866780 0.000003 -0.000001 0.000002 1.291986 -1.928547 -1.498089 14.800114 0.567466 3.865602 14.242551 -1.341735 -6.660648 19.631937 0.143925 -0.648245 50.016056 -0.886183 -6.186836 0.353030 -1.511149 -0.031940 20.222769 3.684307 2.316627 18.787245 0.000004 -0.000001 10.751610 -0.479870 1.397904 -0.000000 0.000001 0.000001 3.273803 0.305946 -0.580109 21.486790 11.830364 2.266129 8.162915 0.000001 -0.000001 18.399054 -3.798983 -4.940569 0.000003 -0.000000 0.000000 20.599903 7.544427 6.833350 -0.152818 -1.553455 13.487837 -20.907059 -8.934963 -12.391240 1.670939 -1.946248 -3.194108 0.000000 -0.000000 0.000002 -18.610481 -2.145665 -19.881632 0.468428 1.204891 22.227543 21.278057 13.471882 -0.096623 -1.408104 1.093018 -2.291726 0.000000 -0.000000 -0.000001 
2.697249 93.854370 0.562596 -0.417613 0.264194 0.075645 -2.278517 -0.817464 0.303653 -0.734658 -3.795921 -4.550982 1.392036 -5.659938 13.363791 15.316909 -4.450867 9.413347 -1.380915 -2.426342 -3.664016 1.666429 -4.035244 -9.905950 0.000077 -0.000022 0.000006 0.022063 -0.133888 0.023912 0.796831 -3.862505 -10.604356 -0.768545 3.611657 -10.586253 6.704298 -21.146421 7.213452 -44.878273 -56.014763 -19.779057 -177.324768 -60.588131 178.769165 9.110793 -0.611292 -6.346442 -5.882103 9.861277 0.702590 -10.936860 -0.360574 7.156197 -0.000001 8.774813 -0.000002 -15.923301 18.277533 5.907821 -1.844031 2.498502 -2.507275 -10.163590 4.678939 4.621101 -20.975996 -0.000003 0.000004 -21.226255 2.451692 -3.593992 0.000000 -0.000006 -0.000001 -1.362682 2.240795 -0.746323 -21.334892 0.584909 3.008321 -13.821197 -0.000003 0.000002 -23.887133 -0.249079 -0.839480 -59.300766 2.415042 -1.603181 -0.294024 1.679685 0.833256 -14.218195 0.093215 1.300579 -34.212002 -0.287562 0.967168 -20.033180 0.964535 1.212842 0.000000 -0.000001 0.000000 -3.440385 0.788232 0.501655 -15.928171 -3.167305 2.999703 -6.338816 0.000000 0.000000 -18.123415 3.648176 -4.905661 -0.000005 -0.000000 -0.000003 -1.129384 14.372765 3.972724 24.265223 37.016327 -38.822929 -179.716064 47.296638 -179.697342 -15.957683 -7.203928 24.219837 2.243540 -5.255032 -3.180155 14.282878 -0.826592 6.952495 -0.000002 -12.690587 -0.000001 15.640219 -17.409304 2.751518 1.665666 -1.955920 -2.878297 4.727792 -4.170582 4.993920 11.020513 0.000003 0.000000 12.109028 -3.735709 -2.866779 0.000002 -0.000001 -0.000000 1.291984 -1.928548 -1.498086 14.800114 0.567468 3.865605 14.242554 -1.341735 -6.660647 19.631941 0.143927 -0.648243 49.853394 -0.957209 -6.083138 0.353028 -1.511148 -0.031941 20.222771 3.684307 2.316629 18.787245 0.000007 -0.000001 10.751610 -0.479867 1.397904 -0.000000 0.000001 -0.000000 3.273805 0.305947 -0.580109 21.486795 11.830364 2.266133 8.162917 0.000003 -0.000002 18.399054 -3.798976 -4.940566 0.000003 0.000001 -0.000000 20.391972 7.645216 6.348774 -0.158433 -1.540142 13.965732 -20.684292 -8.675678 -12.410068 1.664655 -1.955187 -3.233635 0.000000 -0.000000 0.000002 -18.622358 -2.645366 -20.183054 0.470976 1.174759 21.834198 21.638048 13.645215 0.583411 -1.411069 1.027588 -2.468039 0.000000 0.000000 -0.000001 
2.798455 93.902100 0.239646 -0.299365 0.147310 0.479583 -2.146237 -0.838831 0.450085 -0.677086 -3.771900 -4.512297 1.408589 -5.580427 13.315436 15.157104 -4.195564 9.151801 -1.387446 -2.448584 -3.625467 1.580905 -3.906021 -9.854849 0.000076 -0.000022 0.000006 0.027132 -0.134663 0.036874 0.797652 -3.871232 -10.592111 -0.750712 3.599848 -10.578143 6.598343 -21.105257 7.155321 -45.090668 -55.661598 -19.648375 -177.116882 -60.677715 178.500153 8.881571 -0.668473 -7.142900 -5.882102 9.861279 0.702590 -10.936858 -0.360574 7.156198 -0.000001 8.774815 -0.000002 -15.907032 18.266914 5.907938 -1.844031 2.498502 -2.507277 -10.163589 4.678939 4.621105 -20.975992 -0.000002 0.000005 -21.226254 2.451693 -3.593993 0.000000 -0.000006 -0.000001 -1.362680 2.240797 -0.746322 -21.334887 0.584909 3.008322 -13.821197 -0.000002 0.000002 -23.887131 -0.249077 -0.839480 -59.480869 2.371574 -1.662281 -0.294024 1.679687 0.833255 -14.218194 0.093214 1.300579 -34.212006 -0.287563 0.967170 -20.033180 0.964535 1.212843 0.000000 0.000002 0.000000 -3.440386 0.788233 0.501655 -15.928167 -3.167306 2.999704 -6.338817 -0.000001 0.000001 -18.123415 3.648176 -4.905661 -0.000004 -0.000001 -0.000003 -1.395905 14.450196 3.885878 24.390532 37.310997 -39.021870 -179.758713 47.294731 -179.707123 -16.363764 -6.994252 24.348684 2.243541 -5.255032 -3.180155 14.282873 -0.826595 6.952495 -0.000001 -12.690590 0.000000 15.633163 -17.367830 2.798828 1.665663 -1.955919 -2.878297 4.727793 -4.170582 4.993918 11.020510 0.000003 0.000000 12.109031 -3.735710 -2.866779 0.000002 -0.000001 -0.000000 1.291985 -1.928548 -1.498089 14.800113 0.567468 3.865603 14.242554 -1.341733 -6.660648 19.631939 0.143923 -0.648243 49.805367 -0.982966 -6.066931 0.353029 -1.511150 -0.031940 20.222767 3.684305 2.316628 18.787245 0.000005 -0.000000 10.751612 -0.479867 1.397903 -0.000000 -0.000000 -0.000000 3.273804 0.305948 -0.580112 21.486792 11.830361 2.266131 8.162915 0.000002 -0.000002 18.399054 -3.798978 -4.940566 0.000003 0.000001 -0.000000 20.060711 7.913951 5.240563 -0.188073 -1.531493 15.037688 -20.419321 -8.563519 -12.679983 1.666996 -1.974704 -3.222102 0.000000 -0.000000 0.000002 -18.722733 -3.312472 -20.619478 0.508944 1.181687 21.311508 22.069252 13.759308 1.433716 -1.408905 0.988451 -2.604795 0.000000 0.000000 -0.000001 
2.721142 93.912895 -0.032848 -0.094296 0.162712 1.049391 -1.985381 -0.867820 0.646387 -0.614859 -3.746675 -4.449155 1.417108 -5.549524 13.239389 15.004850 -3.944163 8.737057 -1.444598 -2.461387 -3.622332 1.524214 -3.903650 -9.787889 0.000076 -0.000022 0.000006 0.025309 -0.103914 0.045398 0.786381 -3.832171 -10.578511 -0.750235 3.635162 -10.571732 6.455055 -21.069681 7.076190 -45.063816 -55.336357 -19.761820 -176.624878 -60.740063 178.001038 8.673328 -0.668879 -7.764771 -5.882099 9.861279 0.702589 -10.936854 -0.360576 7.156197 0.000001 8.774816 -0.000002 -15.837763 18.233831 5.894775 -1.844031 2.498502 -2.507276 -10.163589 4.678940 4.621104 -20.975994 -0.000005 0.000003 -21.226250 2.451692 -3.593992 0.000000 -0.000006 -0.000002 -1.362682 2.240797 -0.746322 -21.334887 0.584906 3.008321 -13.821195 -0.000004 0.000000 -23.887125 -0.249081 -0.839478 -59.498356 2.379797 -1.718767 -0.294025 1.679686 0.833255 -14.218192 0.093213 1.300578 -34.211998 -0.287564 0.967173 -20.033176 0.964536 1.212842 0.000000 0.000001 0.000000 -3.440384 0.788233 0.501657 -15.928169 -3.167308 2.999704 -6.338816 -0.000001 0.000001 -18.123411 3.648178 -4.905661 -0.000004 -0.000001 -0.000003 -1.799174 14.485473 3.703950 24.587078 37.722267 -39.250885 -179.800278 47.307762 -179.753830 -16.765318 -6.778918 24.199673 2.243540 -5.255033 -3.180153 14.282877 -0.826595 6.952495 -0.000002 -12.690591 -0.000002 15.661545 -17.344427 2.832093 1.665664 -1.955920 -2.878296 4.727793 -4.170584 4.993918 11.020510 0.000003 -0.000001 12.109032 -3.735712 -2.866780 0.000001 -0.000001 -0.000000 1.291984 -1.928547 -1.498088 14.800111 0.567467 3.865602 14.242551 -1.341734 -6.660650 19.631939 0.143927 -0.648243 49.751308 -0.994983 -6.060913 0.353028 -1.511150 -0.031938 20.222773 3.684309 2.316627 18.787245 0.000005 -0.000001 10.751610 -0.479865 1.397904 0.000001 -0.000000 0.000000 3.273804 0.305946 -0.580110 21.486794 11.830365 2.266131 8.162916 0.000003 -0.000001 18.399050 -3.798978 -4.940568 0.000003 0.000002 0.000000 19.865471 8.227239 4.200401 -0.196074 -1.524799 15.561557 -20.490303 -8.534995 -12.519459 1.671565 -1.987155 -3.186906 0.000000 -0.000000 0.000002 -18.785160 -4.079826 -21.432051 0.540936 1.224457 21.369677 22.358578 13.906297 1.858577 -1.409024 0.977567 -2.657172 0.000000 0.000000 -0.000001 
